# xmcd
#
# Track frame offsets: 
#        150
#        19017
#        34045
#        66206
#        88904
#        116488
#        131621
#        154159
#
# Disc length: 2453 seconds
#
# Revision: 0
# Processed by: cddbd v1.5.2PL0 Copyright (c) Steve Scherf et al.
# Submitted via: ExactAudioCopy v1.0b4
#
DISCID=64099308
DTITLE=Jimmy Hicks - Jimmy Hicks Live
DYEAR=1900
DGENRE=Blues
TTITLE0=Steppin' Out Tonight
TTITLE1=Unchain My Heart
TTITLE2=You Got Me Runnin' And Hidin'
TTITLE3=Slip Away
TTITLE4=Money, That's What I Want
TTITLE5=If I Could Turn Back The Hands Of Time
TTITLE6=Hoochie Coochie Man
TTITLE7=Down Home Blues
EXTD=
EXTT0=
EXTT1=
EXTT2=
EXTT3=
EXTT4=
EXTT5=
EXTT6=
EXTT7=
PLAYORDER=
